<svg width="358" height="24" viewBox="0 0 358 24" fill="none" xmlns="http://www.w3.org/2000/svg">
<path d="M13.7363 14.2842H5.29883V23H0.904297V1.67188H14.791V5.23145H5.29883V10.7393H13.7363V14.2842ZM16.0801 14.9287C16.0801 13.3564 16.3828 11.9551 16.9883 10.7246C17.5938 9.49414 18.4629 8.54199 19.5957 7.86816C20.7383 7.19434 22.0615 6.85742 23.5654 6.85742C25.7041 6.85742 27.4473 7.51172 28.7949 8.82031C30.1523 10.1289 30.9092 11.9062 31.0654 14.1523L31.0947 15.2363C31.0947 17.668 30.416 19.6211 29.0586 21.0957C27.7012 22.5605 25.8799 23.293 23.5947 23.293C21.3096 23.293 19.4834 22.5605 18.1162 21.0957C16.7588 19.6309 16.0801 17.6387 16.0801 15.1191V14.9287ZM20.3135 15.2363C20.3135 16.7402 20.5967 17.8926 21.1631 18.6934C21.7295 19.4844 22.54 19.8799 23.5947 19.8799C24.6201 19.8799 25.4209 19.4893 25.9971 18.708C26.5732 17.917 26.8613 16.6572 26.8613 14.9287C26.8613 13.4541 26.5732 12.3115 25.9971 11.501C25.4209 10.6904 24.6104 10.2852 23.5654 10.2852C22.5303 10.2852 21.7295 10.6904 21.1631 11.501C20.5967 12.3018 20.3135 13.5469 20.3135 15.2363ZM37.5986 7.15039L37.7305 8.98145C38.8633 7.56543 40.3818 6.85742 42.2861 6.85742C43.9658 6.85742 45.2158 7.35059 46.0361 8.33691C46.8564 9.32324 47.2764 10.7979 47.2959 12.7607V23H43.0625V12.8633C43.0625 11.9648 42.8672 11.3154 42.4766 10.915C42.0859 10.5049 41.4365 10.2998 40.5283 10.2998C39.3369 10.2998 38.4434 10.8076 37.8477 11.8232V23H33.6143V7.15039H37.5986ZM55.5869 3.25391V7.15039H58.2969V10.2559H55.5869V18.166C55.5869 18.752 55.6992 19.1719 55.9238 19.4258C56.1484 19.6797 56.5781 19.8066 57.2129 19.8066C57.6816 19.8066 58.0967 19.7725 58.458 19.7041V22.9121C57.6279 23.166 56.7734 23.293 55.8945 23.293C52.9258 23.293 51.4121 21.7939 51.3535 18.7959V10.2559H49.0391V7.15039H51.3535V3.25391H55.5869ZM77.6182 21.3887C76.5732 22.6582 75.1279 23.293 73.2822 23.293C71.583 23.293 70.2842 22.8047 69.3857 21.8281C68.4971 20.8516 68.043 19.4209 68.0234 17.5361V7.15039H72.2568V17.3896C72.2568 19.04 73.0088 19.8652 74.5127 19.8652C75.9482 19.8652 76.9346 19.3672 77.4717 18.3711V7.15039H81.7197V23H77.7354L77.6182 21.3887ZM93.4971 18.6201C93.4971 18.1025 93.2383 17.6973 92.7207 17.4043C92.2129 17.1016 91.3926 16.833 90.2598 16.5986C86.4902 15.8076 84.6055 14.2061 84.6055 11.7939C84.6055 10.3877 85.1865 9.21582 86.3486 8.27832C87.5205 7.33105 89.0488 6.85742 90.9336 6.85742C92.9453 6.85742 94.5518 7.33105 95.7529 8.27832C96.9639 9.22559 97.5693 10.4561 97.5693 11.9697H93.3359C93.3359 11.3643 93.1406 10.8662 92.75 10.4756C92.3594 10.0752 91.749 9.875 90.9189 9.875C90.2061 9.875 89.6543 10.0361 89.2637 10.3584C88.873 10.6807 88.6777 11.0908 88.6777 11.5889C88.6777 12.0576 88.8975 12.4385 89.3369 12.7314C89.7861 13.0146 90.5381 13.2637 91.5928 13.4785C92.6475 13.6836 93.5361 13.918 94.2588 14.1816C96.4951 15.002 97.6133 16.4229 97.6133 18.4443C97.6133 19.8896 96.9932 21.0615 95.7529 21.96C94.5127 22.8486 92.9111 23.293 90.9482 23.293C89.6201 23.293 88.4385 23.0586 87.4033 22.5898C86.3779 22.1113 85.5723 21.4619 84.9863 20.6416C84.4004 19.8115 84.1074 18.918 84.1074 17.9609H88.1211C88.1602 18.7129 88.4385 19.2891 88.9561 19.6895C89.4736 20.0898 90.167 20.29 91.0361 20.29C91.8467 20.29 92.457 20.1387 92.8672 19.8359C93.2871 19.5234 93.4971 19.1182 93.4971 18.6201ZM109.537 23C109.342 22.6191 109.2 22.1455 109.112 21.5791C108.087 22.7217 106.754 23.293 105.113 23.293C103.561 23.293 102.271 22.8438 101.246 21.9453C100.23 21.0469 99.7227 19.9141 99.7227 18.5469C99.7227 16.8672 100.343 15.5781 101.583 14.6797C102.833 13.7812 104.635 13.3271 106.988 13.3174H108.937V12.4092C108.937 11.6768 108.746 11.0908 108.365 10.6514C107.994 10.2119 107.403 9.99219 106.593 9.99219C105.88 9.99219 105.318 10.1631 104.908 10.5049C104.508 10.8467 104.308 11.3154 104.308 11.9111H100.074C100.074 10.9932 100.357 10.1436 100.924 9.3623C101.49 8.58105 102.291 7.9707 103.326 7.53125C104.361 7.08203 105.523 6.85742 106.812 6.85742C108.766 6.85742 110.313 7.35059 111.456 8.33691C112.608 9.31348 113.185 10.6904 113.185 12.4678V19.3379C113.194 20.8418 113.404 21.9795 113.814 22.751V23H109.537ZM106.036 20.0557C106.661 20.0557 107.237 19.9189 107.765 19.6455C108.292 19.3623 108.683 18.9863 108.937 18.5176V15.793H107.354C105.235 15.793 104.107 16.5254 103.971 17.9902L103.956 18.2393C103.956 18.7666 104.142 19.2012 104.513 19.543C104.884 19.8848 105.392 20.0557 106.036 20.0557ZM115.777 14.958C115.777 12.4873 116.329 10.5195 117.433 9.05469C118.546 7.58984 120.064 6.85742 121.988 6.85742C123.531 6.85742 124.806 7.43359 125.812 8.58594V0.5H130.06V23H126.236L126.031 21.3154C124.977 22.6338 123.619 23.293 121.959 23.293C120.094 23.293 118.595 22.5605 117.462 21.0957C116.339 19.6211 115.777 17.5752 115.777 14.958ZM120.011 15.2656C120.011 16.75 120.27 17.8877 120.787 18.6787C121.305 19.4697 122.057 19.8652 123.043 19.8652C124.352 19.8652 125.274 19.3135 125.812 18.21V11.9551C125.284 10.8516 124.371 10.2998 123.072 10.2998C121.031 10.2998 120.011 11.9551 120.011 15.2656ZM142.525 23C142.33 22.6191 142.188 22.1455 142.101 21.5791C141.075 22.7217 139.742 23.293 138.102 23.293C136.549 23.293 135.26 22.8438 134.234 21.9453C133.219 21.0469 132.711 19.9141 132.711 18.5469C132.711 16.8672 133.331 15.5781 134.571 14.6797C135.821 13.7812 137.623 13.3271 139.977 13.3174H141.925V12.4092C141.925 11.6768 141.734 11.0908 141.354 10.6514C140.982 10.2119 140.392 9.99219 139.581 9.99219C138.868 9.99219 138.307 10.1631 137.896 10.5049C137.496 10.8467 137.296 11.3154 137.296 11.9111H133.062C133.062 10.9932 133.346 10.1436 133.912 9.3623C134.479 8.58105 135.279 7.9707 136.314 7.53125C137.35 7.08203 138.512 6.85742 139.801 6.85742C141.754 6.85742 143.302 7.35059 144.444 8.33691C145.597 9.31348 146.173 10.6904 146.173 12.4678V19.3379C146.183 20.8418 146.393 21.9795 146.803 22.751V23H142.525ZM139.024 20.0557C139.649 20.0557 140.226 19.9189 140.753 19.6455C141.28 19.3623 141.671 18.9863 141.925 18.5176V15.793H140.343C138.224 15.793 137.096 16.5254 136.959 17.9902L136.944 18.2393C136.944 18.7666 137.13 19.2012 137.501 19.543C137.872 19.8848 138.38 20.0557 139.024 20.0557ZM160.792 7.15039L160.924 8.98145C162.057 7.56543 163.575 6.85742 165.479 6.85742C167.159 6.85742 168.409 7.35059 169.229 8.33691C170.05 9.32324 170.47 10.7979 170.489 12.7607V23H166.256V12.8633C166.256 11.9648 166.061 11.3154 165.67 10.915C165.279 10.5049 164.63 10.2998 163.722 10.2998C162.53 10.2998 161.637 10.8076 161.041 11.8232V23H156.808V7.15039H160.792ZM173.053 14.9287C173.053 13.3564 173.355 11.9551 173.961 10.7246C174.566 9.49414 175.436 8.54199 176.568 7.86816C177.711 7.19434 179.034 6.85742 180.538 6.85742C182.677 6.85742 184.42 7.51172 185.768 8.82031C187.125 10.1289 187.882 11.9062 188.038 14.1523L188.067 15.2363C188.067 17.668 187.389 19.6211 186.031 21.0957C184.674 22.5605 182.853 23.293 180.567 23.293C178.282 23.293 176.456 22.5605 175.089 21.0957C173.731 19.6309 173.053 17.6387 173.053 15.1191V14.9287ZM177.286 15.2363C177.286 16.7402 177.569 17.8926 178.136 18.6934C178.702 19.4844 179.513 19.8799 180.567 19.8799C181.593 19.8799 182.394 19.4893 182.97 18.708C183.546 17.917 183.834 16.6572 183.834 14.9287C183.834 13.4541 183.546 12.3115 182.97 11.501C182.394 10.6904 181.583 10.2852 180.538 10.2852C179.503 10.2852 178.702 10.6904 178.136 11.501C177.569 12.3018 177.286 13.5469 177.286 15.2363ZM206.729 18.6201C206.729 18.1025 206.471 17.6973 205.953 17.4043C205.445 17.1016 204.625 16.833 203.492 16.5986C199.723 15.8076 197.838 14.2061 197.838 11.7939C197.838 10.3877 198.419 9.21582 199.581 8.27832C200.753 7.33105 202.281 6.85742 204.166 6.85742C206.178 6.85742 207.784 7.33105 208.985 8.27832C210.196 9.22559 210.802 10.4561 210.802 11.9697H206.568C206.568 11.3643 206.373 10.8662 205.982 10.4756C205.592 10.0752 204.981 9.875 204.151 9.875C203.438 9.875 202.887 10.0361 202.496 10.3584C202.105 10.6807 201.91 11.0908 201.91 11.5889C201.91 12.0576 202.13 12.4385 202.569 12.7314C203.019 13.0146 203.771 13.2637 204.825 13.4785C205.88 13.6836 206.769 13.918 207.491 14.1816C209.728 15.002 210.846 16.4229 210.846 18.4443C210.846 19.8896 210.226 21.0615 208.985 21.96C207.745 22.8486 206.144 23.293 204.181 23.293C202.853 23.293 201.671 23.0586 200.636 22.5898C199.61 22.1113 198.805 21.4619 198.219 20.6416C197.633 19.8115 197.34 18.918 197.34 17.9609H201.354C201.393 18.7129 201.671 19.2891 202.188 19.6895C202.706 20.0898 203.399 20.29 204.269 20.29C205.079 20.29 205.689 20.1387 206.1 19.8359C206.52 19.5234 206.729 19.1182 206.729 18.6201ZM218.053 23H213.805V7.15039H218.053V23ZM213.556 3.04883C213.556 2.41406 213.766 1.8916 214.186 1.48145C214.615 1.07129 215.196 0.866211 215.929 0.866211C216.651 0.866211 217.228 1.07129 217.657 1.48145C218.087 1.8916 218.302 2.41406 218.302 3.04883C218.302 3.69336 218.082 4.2207 217.643 4.63086C217.213 5.04102 216.642 5.24609 215.929 5.24609C215.216 5.24609 214.64 5.04102 214.2 4.63086C213.771 4.2207 213.556 3.69336 213.556 3.04883ZM226.622 3.25391V7.15039H229.332V10.2559H226.622V18.166C226.622 18.752 226.734 19.1719 226.959 19.4258C227.184 19.6797 227.613 19.8066 228.248 19.8066C228.717 19.8066 229.132 19.7725 229.493 19.7041V22.9121C228.663 23.166 227.809 23.293 226.93 23.293C223.961 23.293 222.447 21.7939 222.389 18.7959V10.2559H220.074V7.15039H222.389V3.25391H226.622ZM238.985 23.293C236.661 23.293 234.767 22.5801 233.302 21.1543C231.847 19.7285 231.119 17.8291 231.119 15.4561V15.0459C231.119 13.4541 231.427 12.0332 232.042 10.7832C232.657 9.52344 233.526 8.55664 234.649 7.88281C235.782 7.19922 237.071 6.85742 238.517 6.85742C240.685 6.85742 242.389 7.54102 243.629 8.9082C244.879 10.2754 245.504 12.2139 245.504 14.7236V16.4521H235.411C235.548 17.4873 235.958 18.3174 236.642 18.9424C237.335 19.5674 238.209 19.8799 239.264 19.8799C240.895 19.8799 242.169 19.2891 243.087 18.1074L245.167 20.4365C244.532 21.335 243.673 22.0381 242.589 22.5459C241.505 23.0439 240.304 23.293 238.985 23.293ZM238.502 10.2852C237.662 10.2852 236.979 10.5684 236.451 11.1348C235.934 11.7012 235.602 12.5117 235.455 13.5664H241.344V13.2295C241.324 12.292 241.07 11.5693 240.582 11.0615C240.094 10.5439 239.4 10.2852 238.502 10.2852ZM248.126 20.9199C248.126 20.2461 248.351 19.6992 248.8 19.2793C249.259 18.8594 249.83 18.6494 250.514 18.6494C251.207 18.6494 251.778 18.8594 252.228 19.2793C252.687 19.6992 252.916 20.2461 252.916 20.9199C252.916 21.584 252.691 22.126 252.242 22.5459C251.793 22.9561 251.217 23.1611 250.514 23.1611C249.82 23.1611 249.249 22.9561 248.8 22.5459C248.351 22.126 248.126 21.584 248.126 20.9199ZM248.126 8.92285C248.126 8.24902 248.351 7.70215 248.8 7.28223C249.259 6.8623 249.83 6.65234 250.514 6.65234C251.207 6.65234 251.778 6.8623 252.228 7.28223C252.687 7.70215 252.916 8.24902 252.916 8.92285C252.916 9.58691 252.691 10.1289 252.242 10.5488C251.793 10.959 251.217 11.1641 250.514 11.1641C249.82 11.1641 249.249 10.959 248.8 10.5488C248.351 10.1289 248.126 9.58691 248.126 8.92285ZM272.501 14.3721H267.491V23H264.664V1.67188H271.725C274.127 1.67188 275.973 2.21875 277.262 3.3125C278.561 4.40625 279.21 5.99805 279.21 8.08789C279.21 9.41602 278.849 10.5732 278.126 11.5596C277.413 12.5459 276.417 13.2832 275.138 13.7715L280.147 22.8242V23H277.13L272.501 14.3721ZM267.491 12.0723H271.812C273.209 12.0723 274.317 11.7109 275.138 10.9883C275.968 10.2656 276.383 9.29883 276.383 8.08789C276.383 6.76953 275.987 5.75879 275.196 5.05566C274.415 4.35254 273.282 3.99609 271.798 3.98633H267.491V12.0723ZM282.022 14.9287C282.022 13.376 282.325 11.9795 282.931 10.7393C283.546 9.49902 284.396 8.54199 285.479 7.86816C286.573 7.19434 287.818 6.85742 289.215 6.85742C291.373 6.85742 293.116 7.60449 294.444 9.09863C295.782 10.5928 296.451 12.5801 296.451 15.0605V15.251C296.451 16.7939 296.153 18.1807 295.558 19.4111C294.972 20.6318 294.127 21.584 293.023 22.2676C291.93 22.9512 290.67 23.293 289.244 23.293C287.096 23.293 285.353 22.5459 284.015 21.0518C282.687 19.5576 282.022 17.5801 282.022 15.1191V14.9287ZM284.747 15.251C284.747 17.0088 285.152 18.4199 285.963 19.4844C286.783 20.5488 287.877 21.0811 289.244 21.0811C290.621 21.0811 291.715 20.5439 292.525 19.4697C293.336 18.3857 293.741 16.8721 293.741 14.9287C293.741 13.1904 293.326 11.7842 292.496 10.71C291.676 9.62598 290.582 9.08398 289.215 9.08398C287.877 9.08398 286.798 9.61621 285.978 10.6807C285.157 11.7451 284.747 13.2686 284.747 15.251ZM313.268 15.251C313.268 17.6729 312.711 19.6211 311.598 21.0957C310.484 22.5605 308.99 23.293 307.115 23.293C305.113 23.293 303.565 22.585 302.472 21.1689L302.34 23H299.85V0.5H302.56V8.89355C303.653 7.53613 305.162 6.85742 307.086 6.85742C309.01 6.85742 310.519 7.58496 311.612 9.04004C312.716 10.4951 313.268 12.4873 313.268 15.0166V15.251ZM310.558 14.9434C310.558 13.0977 310.201 11.6719 309.488 10.666C308.775 9.66016 307.75 9.15723 306.412 9.15723C304.625 9.15723 303.341 9.9873 302.56 11.6475V18.5029C303.39 20.1631 304.684 20.9932 306.441 20.9932C307.74 20.9932 308.751 20.4902 309.474 19.4844C310.196 18.4785 310.558 16.9648 310.558 14.9434ZM315.978 14.9287C315.978 13.376 316.28 11.9795 316.886 10.7393C317.501 9.49902 318.351 8.54199 319.435 7.86816C320.528 7.19434 321.773 6.85742 323.17 6.85742C325.328 6.85742 327.071 7.60449 328.399 9.09863C329.737 10.5928 330.406 12.5801 330.406 15.0605V15.251C330.406 16.7939 330.108 18.1807 329.513 19.4111C328.927 20.6318 328.082 21.584 326.979 22.2676C325.885 22.9512 324.625 23.293 323.199 23.293C321.051 23.293 319.308 22.5459 317.97 21.0518C316.642 19.5576 315.978 17.5801 315.978 15.1191V14.9287ZM318.702 15.251C318.702 17.0088 319.107 18.4199 319.918 19.4844C320.738 20.5488 321.832 21.0811 323.199 21.0811C324.576 21.0811 325.67 20.5439 326.48 19.4697C327.291 18.3857 327.696 16.8721 327.696 14.9287C327.696 13.1904 327.281 11.7842 326.451 10.71C325.631 9.62598 324.537 9.08398 323.17 9.08398C321.832 9.08398 320.753 9.61621 319.933 10.6807C319.112 11.7451 318.702 13.2686 318.702 15.251ZM337.481 3.3125V7.15039H340.44V9.24512H337.481V19.0742C337.481 19.709 337.613 20.1875 337.877 20.5098C338.141 20.8223 338.59 20.9785 339.225 20.9785C339.537 20.9785 339.967 20.9199 340.514 20.8027V23C339.801 23.1953 339.107 23.293 338.434 23.293C337.223 23.293 336.31 22.9268 335.694 22.1943C335.079 21.4619 334.771 20.4219 334.771 19.0742V9.24512H331.886V7.15039H334.771V3.3125H337.481ZM342.608 14.9287C342.608 13.376 342.911 11.9795 343.517 10.7393C344.132 9.49902 344.981 8.54199 346.065 7.86816C347.159 7.19434 348.404 6.85742 349.801 6.85742C351.959 6.85742 353.702 7.60449 355.03 9.09863C356.368 10.5928 357.037 12.5801 357.037 15.0605V15.251C357.037 16.7939 356.739 18.1807 356.144 19.4111C355.558 20.6318 354.713 21.584 353.609 22.2676C352.516 22.9512 351.256 23.293 349.83 23.293C347.682 23.293 345.938 22.5459 344.601 21.0518C343.272 19.5576 342.608 17.5801 342.608 15.1191V14.9287ZM345.333 15.251C345.333 17.0088 345.738 18.4199 346.549 19.4844C347.369 20.5488 348.463 21.0811 349.83 21.0811C351.207 21.0811 352.301 20.5439 353.111 19.4697C353.922 18.3857 354.327 16.8721 354.327 14.9287C354.327 13.1904 353.912 11.7842 353.082 10.71C352.262 9.62598 351.168 9.08398 349.801 9.08398C348.463 9.08398 347.384 9.61621 346.563 10.6807C345.743 11.7451 345.333 13.2686 345.333 15.251Z" fill="#343A40"/>
</svg>
